<svg width="28" height="25" viewBox="0 0 28 25" fill="none" xmlns="http://www.w3.org/2000/svg">
<g clip-path="url(#clip0_594_3743)">
<path d="M7.19444 3.72361C7.19444 1.66736 8.86181 0 10.9181 0C11.9049 0 12.8528 0.39375 13.5479 1.08889L14 1.54097L14.4521 1.08889C15.1472 0.39375 16.0951 0 17.0819 0C19.1382 0 20.8056 1.66736 20.8056 3.72361C20.8056 4.71042 20.4118 5.65833 19.7167 6.35347L14.6854 11.3799C14.3063 11.759 13.6889 11.759 13.3097 11.3799L8.28333 6.35347C7.58819 5.65833 7.19444 4.71042 7.19444 3.72361ZM27.6208 16.3479C28.2576 17.2132 28.0729 18.4285 27.2076 19.0653L21.0535 23.6007C19.916 24.4368 18.5451 24.8889 17.1306 24.8889H9.33333H1.55556C0.695139 24.8889 0 24.1938 0 23.3333V20.2222C0 19.3618 0.695139 18.6667 1.55556 18.6667H3.34444L5.52708 16.9167C6.63056 16.0319 8.00139 15.5556 9.41597 15.5556H13.2222H14H17.1111C17.9715 15.5556 18.6667 16.2507 18.6667 17.1111C18.6667 17.9715 17.9715 18.6667 17.1111 18.6667H14H13.2222C12.7944 18.6667 12.4444 19.0167 12.4444 19.4444C12.4444 19.8722 12.7944 20.2222 13.2222 20.2222H19.0847L24.9035 15.9347C25.7687 15.2979 26.984 15.4826 27.6208 16.3479ZM9.41111 18.6667H9.36736C9.38194 18.6667 9.39653 18.6667 9.41111 18.6667Z" fill="#5F5C6B"/>
</g>
<defs>
<clipPath id="clip0_594_3743">
<rect width="28" height="24.8889" fill="white"/>
</clipPath>
</defs>
</svg>
