<svg width="28" height="28" viewBox="0 0 28 28" fill="none" xmlns="http://www.w3.org/2000/svg">
<path d="M2.60312 16.4282L12.4852 25.654C12.8953 26.0368 13.4367 26.2501 14 26.2501C14.5633 26.2501 15.1047 26.0368 15.5148 25.654L25.3969 16.4282C27.0594 14.8805 28 12.7094 28 10.4399V10.1227C28 6.30005 25.2383 3.04067 21.4703 2.41177C18.9766 1.99614 16.4391 2.81099 14.6562 4.5938L14 5.25005L13.3438 4.5938C11.5609 2.81099 9.02344 1.99614 6.52969 2.41177C2.76172 3.04067 0 6.30005 0 10.1227V10.4399C0 12.7094 0.940625 14.8805 2.60312 16.4282Z" fill="#6B5C5C"/>
</svg>
