<svg xmlns="http://www.w3.org/2000/svg" width="667.8" height="149.5" viewBox="0 0 667.8 149.5"><g id="Layer_2" data-name="Layer 2"><g id="Layer_1-2" data-name="Layer 1"><path d="M648.2,47.5c-27.8-9.6-56.4-3-82,9.9-10.7,5.3-20.7,11.8-31,17.9-5.2,3.1-10.4,5.9-15.9,8.5l-5.5,2.5c-1,.4-9.3,3.3-7.7,2.9A100.2,100.2,0,0,1,494,91.8c.9-.3-5.1.1-5.4.1s-3.9-.9-4.9-1a23.9,23.9,0,0,0-3.5-1.4L477,87.4c5.3,3.6-.4-.7-1.4-1.9a31.5,31.5,0,0,1-2.2-2.9l-.7-1C463.5,62.9,456.8,42,443,26,424.4,4.6,396.8-2.6,369.4.8s-50.3,19.3-71,36.1c-9.3,7.6-18.5,15.4-28.1,22.7-6.3,4.6-19.2,11.3-27.7,13-5.9,1.1-5.8.8-11.7.4h-2.1l-2.1-.8-8.4-2.8L212.9,67l-1.9-.8L208.8,65c-5.7-3-11.5-6.1-17.4-9-28.9-14.3-58.5-20.3-90.6-13.3C70.6,49.3,43,64,16.5,79.5,3.5,87.1-4.8,103.5,3,118c6.9,12.8,24.6,21.6,38.5,13.5,21.2-12.4,45-26,66.9-31.4,11.1-2.7,18-3.5,28.2-2.6,5.8.5,7.3.9,13.1,2.9l7,2.6,5.5,2.5,1.4.7c22,11.3,44.1,24.2,69.5,24.7,29.1.6,55-12.8,77.7-29.8,19.1-14.2,34.8-30.9,54.1-39.6,6.8-3,15.1-4,22.2-3.9a12.7,12.7,0,0,0,2,0l1.8.8,3.5,1.2a15.1,15.1,0,0,0,2.6,2c.4.6,3.4,3.5,4.1,4.3a15.6,15.6,0,0,1,1.2,1.7c1.1,1.9,2.2,3.9,3.2,5.9,1.9,3.9,3.6,7.9,5.3,11.9,4.8,11.2,9.8,21.8,16.8,31.9a74.9,74.9,0,0,0,62.6,32.2c28.5-.4,54.1-12.5,78-27.1A283.1,283.1,0,0,1,603.1,104l2.5-1.2,2.5-.5a69.7,69.7,0,0,1,9.1-1.8l2-.4,2.8.3c2.5.4,3.5.5,2.9.3a39.7,39.7,0,0,1,4.9,1.5c14.7,5.1,31.6-3.4,36.6-18.1S663,52.6,648.2,47.5Z" fill="#e95b1a"/></g></g></svg>