<?xml version="1.0" encoding="UTF-8"?>
<svg id="Layer_1" data-name="Layer 1" xmlns="http://www.w3.org/2000/svg" viewBox="0 0 50 50">
  <defs>
    <style>
      .cls-1 {
        fill-rule: evenodd;
      }
    </style>
  </defs>
  <path class="cls-1" d="M27.08,22.46v-.07s-.04.05-.05.07h.05Z"/>
  <path class="cls-1" d="M0,0v50h50V0H0ZM15.55,41.54h-7.42v-22.32h7.42v22.32ZM11.84,16.17h-.05c-2.49,0-4.1-1.71-4.1-3.86s1.66-3.86,4.2-3.86,4.1,1.67,4.15,3.86c0,2.14-1.61,3.86-4.2,3.86ZM42.31,41.54h-7.42v-11.94c0-3-1.07-5.05-3.76-5.05-2.05,0-3.27,1.38-3.81,2.71-.2.48-.25,1.14-.25,1.81v12.46h-7.42s.1-20.22,0-22.32h7.42v3.16c.99-1.52,2.75-3.69,6.69-3.69,4.88,0,8.54,3.19,8.54,10.04v12.8Z"/>
</svg>