<svg width="103" height="34" viewBox="0 0 103 34" fill="none" xmlns="http://www.w3.org/2000/svg">
<path d="M25.4697 11.7927H13.5862V15.3189H22.0138C21.5979 20.2641 17.4835 22.3723 13.6005 22.3723C8.63181 22.3723 4.29722 18.4628 4.29722 12.9844C4.29722 7.64672 8.42997 3.53641 13.6117 3.53641C17.6099 3.53641 19.9658 6.08497 19.9658 6.08497L22.4348 3.52824C22.4348 3.52824 19.2654 0 13.4863 0C6.12709 0 0.433594 6.21136 0.433594 12.9212C0.433594 19.4955 5.78965 25.9067 13.6749 25.9067C20.6101 25.9067 25.6868 21.1561 25.6868 14.1303C25.6848 12.649 25.4697 11.7927 25.4697 11.7927Z" fill="#8C8A97"/>
<path d="M35.2055 9.23901C30.3295 9.23901 26.835 13.0506 26.835 17.4974C26.835 22.0094 30.2245 25.8923 35.2625 25.8923C39.8235 25.8923 43.5607 22.4059 43.5607 17.5942C43.5607 12.0791 39.2138 9.23901 35.2055 9.23901ZM35.2534 12.5093C37.6511 12.5093 39.9234 14.4483 39.9234 17.5718C39.9234 20.6291 37.6602 22.6231 35.2422 22.6231C32.5845 22.6231 30.4886 20.4945 30.4886 17.5473C30.4886 14.6634 32.559 12.5093 35.2534 12.5093Z" fill="#8C8A97"/>
<path d="M53.4096 9.23901C48.5337 9.23901 45.0391 13.0506 45.0391 17.4974C45.0391 22.0094 48.4287 25.8923 53.4667 25.8923C58.0276 25.8923 61.7648 22.4059 61.7648 17.5942C61.7648 12.0791 57.4179 9.23901 53.4096 9.23901ZM53.4585 12.5093C55.8562 12.5093 58.1285 14.4483 58.1285 17.5718C58.1285 20.6291 55.8654 22.6231 53.4473 22.6231C50.7896 22.6231 48.6937 20.4945 48.6937 17.5473C48.6937 14.6634 50.7642 12.5093 53.4585 12.5093Z" fill="#8C8A97"/>
<path d="M71.2648 9.24829C66.7895 9.24829 63.2715 13.168 63.2715 17.5678C63.2715 22.5793 67.3502 25.9027 71.1883 25.9027C73.5616 25.9027 74.8236 24.9607 75.7554 23.8791V25.5214C75.7554 28.3941 74.0111 30.1139 71.378 30.1139C68.8345 30.1139 67.5592 28.2229 67.1157 27.1494L63.9158 28.4869C65.0514 30.8877 67.3359 33.3903 71.4045 33.3903C75.8543 33.3903 79.2459 30.5869 79.2459 24.7089V9.7468H75.7544V11.1577C74.6819 10.0017 73.2139 9.24829 71.2648 9.24829ZM71.589 12.5115C73.7838 12.5115 76.0367 14.3852 76.0367 17.5852C76.0367 20.8371 73.7879 22.6303 71.5411 22.6303C69.1546 22.6303 66.9353 20.6924 66.9353 17.6168C66.9343 14.4198 69.2402 12.5115 71.589 12.5115Z" fill="#8C8A97"/>
<path d="M94.768 9.22778C90.5465 9.22778 87.001 12.5868 87.001 17.5432C87.001 22.7882 90.9523 25.8984 95.1727 25.8984C98.6958 25.8984 100.858 23.9707 102.149 22.2448L99.2698 20.3293C98.5225 21.4884 97.2737 22.621 95.19 22.621C92.8494 22.621 91.7729 21.3396 91.1062 20.0979L102.271 15.4656L101.691 14.1078C100.614 11.4491 98.0974 9.22778 94.768 9.22778ZM94.9138 12.4298C96.4347 12.4298 97.5296 13.2382 97.9945 14.2087L90.5384 17.3251C90.2173 14.9121 92.5028 12.4298 94.9138 12.4298Z" fill="#8C8A97"/>
<path d="M81.6797 25.4042H85.3466V0.861572H81.6797V25.4042Z" fill="#8C8A97"/>
</svg>
