<svg width="151" height="19" viewBox="0 0 151 19" fill="none" xmlns="http://www.w3.org/2000/svg">
<path d="M0.04 18V0.959999H7.336C8.088 0.959999 8.776 1.12 9.4 1.44C10.024 1.744 10.568 2.16 11.032 2.688C11.496 3.2 11.856 3.784 12.112 4.44C12.368 5.08 12.496 5.736 12.496 6.408C12.496 7.192 12.344 7.936 12.04 8.64C11.752 9.344 11.336 9.944 10.792 10.44C10.264 10.936 9.64 11.28 8.92 11.472L13.048 18H10.6L6.712 11.88H2.2V18H0.04ZM2.2 9.96H7.36C7.952 9.96 8.464 9.8 8.896 9.48C9.344 9.144 9.688 8.704 9.928 8.16C10.184 7.616 10.312 7.032 10.312 6.408C10.312 5.768 10.168 5.184 9.88 4.656C9.592 4.112 9.216 3.68 8.752 3.36C8.288 3.04 7.776 2.88 7.216 2.88H2.2V9.96ZM27.1414 16.08V18H15.5734V0.959999H26.9254V2.88H17.7334V8.4H25.7254V10.2H17.7334V16.08H27.1414ZM29.8647 18V0.959999H32.0247V18H29.8647ZM45.8671 4.536C45.6751 4.312 45.4191 4.096 45.0991 3.888C44.7791 3.68 44.4191 3.496 44.0191 3.336C43.6191 3.16 43.1791 3.024 42.6991 2.928C42.2351 2.816 41.7471 2.76 41.2351 2.76C39.9231 2.76 38.9551 3.008 38.3311 3.504C37.7071 4 37.3951 4.68 37.3951 5.544C37.3951 6.152 37.5551 6.632 37.8751 6.984C38.1951 7.336 38.6831 7.624 39.3391 7.848C40.0111 8.072 40.8591 8.304 41.8831 8.544C43.0671 8.8 44.0911 9.112 44.9551 9.48C45.8191 9.848 46.4831 10.344 46.9471 10.968C47.4111 11.576 47.6431 12.392 47.6431 13.416C47.6431 14.232 47.4831 14.944 47.1631 15.552C46.8591 16.144 46.4271 16.64 45.8671 17.04C45.3071 17.424 44.6511 17.712 43.8991 17.904C43.1471 18.08 42.3311 18.168 41.4511 18.168C40.5871 18.168 39.7391 18.08 38.9071 17.904C38.0911 17.712 37.3151 17.44 36.5791 17.088C35.8431 16.736 35.1551 16.296 34.5151 15.768L35.5471 13.944C35.8031 14.216 36.1311 14.488 36.5311 14.76C36.9471 15.016 37.4111 15.256 37.9231 15.48C38.4511 15.704 39.0191 15.888 39.6271 16.032C40.2351 16.16 40.8591 16.224 41.4991 16.224C42.7151 16.224 43.6591 16.008 44.3311 15.576C45.0031 15.128 45.3391 14.48 45.3391 13.632C45.3391 12.992 45.1471 12.48 44.7631 12.096C44.3951 11.712 43.8431 11.392 43.1071 11.136C42.3711 10.88 41.4751 10.624 40.4191 10.368C39.2671 10.08 38.2991 9.768 37.5151 9.432C36.7311 9.08 36.1391 8.624 35.7391 8.064C35.3551 7.504 35.1631 6.776 35.1631 5.88C35.1631 4.792 35.4271 3.872 35.9551 3.12C36.4831 2.368 37.2111 1.8 38.1391 1.416C39.0671 1.032 40.1151 0.839999 41.2831 0.839999C42.0511 0.839999 42.7631 0.919999 43.4191 1.08C44.0911 1.24 44.7151 1.464 45.2911 1.752C45.8671 2.04 46.3951 2.384 46.8751 2.784L45.8671 4.536ZM60.2521 4.536C60.0601 4.312 59.8041 4.096 59.4841 3.888C59.1641 3.68 58.8041 3.496 58.4041 3.336C58.0041 3.16 57.5641 3.024 57.0841 2.928C56.6201 2.816 56.1321 2.76 55.6201 2.76C54.3081 2.76 53.3401 3.008 52.7161 3.504C52.0921 4 51.7801 4.68 51.7801 5.544C51.7801 6.152 51.9401 6.632 52.2601 6.984C52.5801 7.336 53.0681 7.624 53.7241 7.848C54.3961 8.072 55.2441 8.304 56.2681 8.544C57.4521 8.8 58.4761 9.112 59.3401 9.48C60.2041 9.848 60.8681 10.344 61.3321 10.968C61.7961 11.576 62.0281 12.392 62.0281 13.416C62.0281 14.232 61.8681 14.944 61.5481 15.552C61.2441 16.144 60.8121 16.64 60.2521 17.04C59.6921 17.424 59.0361 17.712 58.2841 17.904C57.5321 18.08 56.7161 18.168 55.8361 18.168C54.9721 18.168 54.1241 18.08 53.2921 17.904C52.4761 17.712 51.7001 17.44 50.9641 17.088C50.2281 16.736 49.5401 16.296 48.9001 15.768L49.9321 13.944C50.1881 14.216 50.5161 14.488 50.9161 14.76C51.3321 15.016 51.7961 15.256 52.3081 15.48C52.8361 15.704 53.4041 15.888 54.0121 16.032C54.6201 16.16 55.2441 16.224 55.8841 16.224C57.1001 16.224 58.0441 16.008 58.7161 15.576C59.3881 15.128 59.7241 14.48 59.7241 13.632C59.7241 12.992 59.5321 12.48 59.1481 12.096C58.7801 11.712 58.2281 11.392 57.4921 11.136C56.7561 10.88 55.8601 10.624 54.8041 10.368C53.6521 10.08 52.6841 9.768 51.9001 9.432C51.1161 9.08 50.5241 8.624 50.1241 8.064C49.7401 7.504 49.5481 6.776 49.5481 5.88C49.5481 4.792 49.8121 3.872 50.3401 3.12C50.8681 2.368 51.5961 1.8 52.5241 1.416C53.4521 1.032 54.5001 0.839999 55.6681 0.839999C56.4361 0.839999 57.1481 0.919999 57.8041 1.08C58.4761 1.24 59.1001 1.464 59.6761 1.752C60.2521 2.04 60.7801 2.384 61.2601 2.784L60.2521 4.536ZM70.4594 18V0.959999H81.7154V2.88H72.6194V8.568H80.2754V10.368H72.6194V18H70.4594ZM88.0831 0.959999H89.9071L96.8671 18H94.5631L92.5471 13.008H85.3951L83.4031 18H81.0991L88.0831 0.959999ZM92.0671 11.328L88.9951 3.456L85.8271 11.328H92.0671ZM113.637 18V4.992L108.021 15H106.701L101.061 4.992V18H98.9013V0.959999H101.181L107.349 12.024L113.541 0.959999H115.797V18H113.637ZM119.638 18V0.959999H121.798V18H119.638ZM125.632 18V0.959999H127.792V16.08H137.296V18H125.632ZM137.431 0.959999L142.591 9.84L147.799 0.959999H150.151L143.671 11.784V18H141.511V11.736L135.055 0.959999H137.431Z" fill="black"/>
</svg>
