<svg width="126" height="15" viewBox="0 0 126 15" fill="none" xmlns="http://www.w3.org/2000/svg">
<path d="M0 14.3V0.0999999H6.18C6.82 0.0999999 7.40667 0.233333 7.94 0.5C8.47333 0.766667 8.93333 1.12 9.32 1.56C9.72 2 10.0267 2.49333 10.24 3.04C10.4667 3.58667 10.58 4.14667 10.58 4.72C10.58 5.34667 10.4667 5.94667 10.24 6.52C10.0133 7.09333 9.68667 7.58667 9.26 8C8.84667 8.41333 8.36 8.71333 7.8 8.9L11.14 14.3H8.62L5.54 9.36H2.24V14.3H0ZM2.24 7.38H6.16C6.57333 7.38 6.94 7.26 7.26 7.02C7.58 6.78 7.83333 6.46 8.02 6.06C8.20667 5.64667 8.3 5.2 8.3 4.72C8.3 4.22667 8.19333 3.78667 7.98 3.4C7.76667 3 7.48667 2.68 7.14 2.44C6.80667 2.2 6.44 2.08 6.04 2.08H2.24V7.38Z" fill="white"/>
<path d="M22.7627 12.32V14.3H13.0227V0.0999999H22.5827V2.08H15.2627V6.12H21.6027V7.98H15.2627V12.32H22.7627Z" fill="white"/>
<path d="M24.8734 14.3V0.0999999H27.1134V14.3H24.8734Z" fill="white"/>
<path d="M38.5227 3.44C38.3893 3.29333 38.196 3.14 37.9427 2.98C37.6893 2.80667 37.3893 2.64667 37.0427 2.5C36.696 2.35333 36.3227 2.23333 35.9227 2.14C35.5227 2.04667 35.1093 2 34.6827 2C33.7493 2 33.056 2.17333 32.6027 2.52C32.1493 2.86667 31.9227 3.34667 31.9227 3.96C31.9227 4.41333 32.0493 4.77333 32.3027 5.04C32.556 5.29333 32.9427 5.50667 33.4627 5.68C33.9827 5.85333 34.636 6.04 35.4227 6.24C36.3827 6.46667 37.216 6.74 37.9227 7.06C38.6293 7.36667 39.1693 7.78 39.5427 8.3C39.916 8.82 40.1027 9.50667 40.1027 10.36C40.1027 11.08 39.9693 11.7 39.7027 12.22C39.436 12.74 39.0627 13.1667 38.5827 13.5C38.1027 13.82 37.5493 14.06 36.9227 14.22C36.296 14.3667 35.6227 14.44 34.9027 14.44C34.196 14.44 33.4893 14.3667 32.7827 14.22C32.0893 14.0733 31.4227 13.86 30.7827 13.58C30.156 13.2867 29.576 12.9333 29.0427 12.52L30.0627 10.6C30.236 10.7733 30.4827 10.9667 30.8027 11.18C31.136 11.38 31.516 11.5733 31.9427 11.76C32.3827 11.9467 32.856 12.1067 33.3627 12.24C33.8827 12.36 34.4093 12.42 34.9427 12.42C35.836 12.42 36.516 12.2667 36.9827 11.96C37.4627 11.64 37.7027 11.1867 37.7027 10.6C37.7027 10.12 37.5493 9.74 37.2427 9.46C36.936 9.16667 36.4893 8.92 35.9027 8.72C35.316 8.52 34.616 8.32 33.8027 8.12C32.8693 7.86667 32.0893 7.59333 31.4627 7.3C30.836 6.99333 30.3627 6.60667 30.0427 6.14C29.736 5.66 29.5827 5.05333 29.5827 4.32C29.5827 3.38667 29.8093 2.6 30.2627 1.96C30.716 1.30667 31.3293 0.82 32.1027 0.5C32.8893 0.166667 33.7693 0 34.7427 0C35.3827 0 35.9893 0.0733332 36.5627 0.22C37.136 0.353334 37.6693 0.54 38.1627 0.779999C38.6693 1.02 39.1293 1.29333 39.5427 1.6L38.5227 3.44Z" fill="white"/>
<path d="M50.5492 3.44C50.4159 3.29333 50.2226 3.14 49.9692 2.98C49.7159 2.80667 49.4159 2.64667 49.0692 2.5C48.7226 2.35333 48.3492 2.23333 47.9492 2.14C47.5492 2.04667 47.1359 2 46.7092 2C45.7759 2 45.0826 2.17333 44.6292 2.52C44.1759 2.86667 43.9492 3.34667 43.9492 3.96C43.9492 4.41333 44.0759 4.77333 44.3292 5.04C44.5826 5.29333 44.9692 5.50667 45.4892 5.68C46.0092 5.85333 46.6626 6.04 47.4492 6.24C48.4092 6.46667 49.2426 6.74 49.9492 7.06C50.6559 7.36667 51.1959 7.78 51.5692 8.3C51.9426 8.82 52.1292 9.50667 52.1292 10.36C52.1292 11.08 51.9959 11.7 51.7292 12.22C51.4626 12.74 51.0892 13.1667 50.6092 13.5C50.1292 13.82 49.5759 14.06 48.9492 14.22C48.3226 14.3667 47.6492 14.44 46.9292 14.44C46.2226 14.44 45.5159 14.3667 44.8092 14.22C44.1159 14.0733 43.4492 13.86 42.8092 13.58C42.1826 13.2867 41.6026 12.9333 41.0692 12.52L42.0892 10.6C42.2626 10.7733 42.5092 10.9667 42.8292 11.18C43.1626 11.38 43.5426 11.5733 43.9692 11.76C44.4092 11.9467 44.8826 12.1067 45.3892 12.24C45.9092 12.36 46.4359 12.42 46.9692 12.42C47.8626 12.42 48.5426 12.2667 49.0092 11.96C49.4892 11.64 49.7292 11.1867 49.7292 10.6C49.7292 10.12 49.5759 9.74 49.2692 9.46C48.9626 9.16667 48.5159 8.92 47.9292 8.72C47.3426 8.52 46.6426 8.32 45.8292 8.12C44.8959 7.86667 44.1159 7.59333 43.4892 7.3C42.8626 6.99333 42.3892 6.60667 42.0692 6.14C41.7626 5.66 41.6092 5.05333 41.6092 4.32C41.6092 3.38667 41.8359 2.6 42.2892 1.96C42.7426 1.30667 43.3559 0.82 44.1292 0.5C44.9159 0.166667 45.7959 0 46.7692 0C47.4092 0 48.0159 0.0733332 48.5892 0.22C49.1626 0.353334 49.6959 0.54 50.1892 0.779999C50.6959 1.02 51.1559 1.29333 51.5692 1.6L50.5492 3.44Z" fill="white"/>
<path d="M58.9172 14.3V0.0999999H68.3772V2.08H61.1572V6.32H67.1972V8.18H61.1572V14.3H58.9172Z" fill="white"/>
<path d="M73.3445 0.0999999H75.4645L80.9845 14.3H78.6245L77.1245 10.44H71.6445L70.1645 14.3H67.7845L73.3445 0.0999999ZM76.6845 8.78L74.4045 2.56L72.0445 8.78H76.6845Z" fill="white"/>
<path d="M94.4806 14.3V4.18L90.3006 11.86H88.9806L84.7806 4.18V14.3H82.5406V0.0999999H84.9406L89.6406 8.78L94.3406 0.0999999H96.7406V14.3H94.4806Z" fill="white"/>
<path d="M99.743 14.3V0.0999999H101.983V14.3H99.743Z" fill="white"/>
<path d="M104.992 14.3V0.0999999H107.232V12.32H114.852V14.3H104.992Z" fill="white"/>
<path d="M115.383 0.0999999L119.303 7.16L123.263 0.0999999H125.723L120.423 9.22V14.3H118.183V9.18L112.923 0.0999999H115.383Z" fill="white"/>
</svg>
