<svg width="880" height="660" viewBox="0 0 880 660" fill="none" xmlns="http://www.w3.org/2000/svg">
<rect width="880" height="660" fill="black"/>
<path d="M140.456 363L130.6 345.592H126.376V363H117.416V318.328H134.184C137.64 318.328 140.584 318.947 143.016 320.184C145.448 321.379 147.261 323.021 148.456 325.112C149.693 327.16 150.312 329.464 150.312 332.024C150.312 334.968 149.459 337.635 147.752 340.024C146.045 342.371 143.507 343.992 140.136 344.888L150.824 363H140.456ZM126.376 338.872H133.864C136.296 338.872 138.109 338.296 139.304 337.144C140.499 335.949 141.096 334.307 141.096 332.216C141.096 330.168 140.499 328.589 139.304 327.48C138.109 326.328 136.296 325.752 133.864 325.752H126.376V338.872ZM167.376 325.56V336.76H182.416V343.864H167.376V355.704H184.336V363H158.416V318.264H184.336V325.56H167.376ZM201.439 318.328V363H192.479V318.328H201.439ZM225.715 363.448C222.6 363.448 219.784 362.915 217.267 361.848C214.792 360.781 212.83 359.245 211.379 357.24C209.928 355.235 209.182 352.867 209.139 350.136H218.739C218.867 351.971 219.507 353.421 220.659 354.488C221.854 355.555 223.475 356.088 225.523 356.088C227.614 356.088 229.256 355.597 230.451 354.616C231.646 353.592 232.243 352.269 232.243 350.648C232.243 349.325 231.838 348.237 231.027 347.384C230.216 346.531 229.192 345.869 227.955 345.4C226.76 344.888 225.096 344.333 222.963 343.736C220.062 342.883 217.694 342.051 215.859 341.24C214.067 340.387 212.51 339.128 211.187 337.464C209.907 335.757 209.267 333.496 209.267 330.68C209.267 328.035 209.928 325.731 211.251 323.768C212.574 321.805 214.43 320.312 216.819 319.288C219.208 318.221 221.939 317.688 225.011 317.688C229.619 317.688 233.352 318.819 236.211 321.08C239.112 323.299 240.712 326.413 241.011 330.424H231.155C231.07 328.888 230.408 327.629 229.171 326.648C227.976 325.624 226.376 325.112 224.371 325.112C222.622 325.112 221.214 325.56 220.147 326.456C219.123 327.352 218.611 328.653 218.611 330.36C218.611 331.555 218.995 332.557 219.763 333.368C220.574 334.136 221.555 334.776 222.707 335.288C223.902 335.757 225.566 336.312 227.699 336.952C230.6 337.805 232.968 338.659 234.803 339.512C236.638 340.365 238.216 341.645 239.539 343.352C240.862 345.059 241.523 347.299 241.523 350.072C241.523 352.461 240.904 354.68 239.667 356.728C238.43 358.776 236.616 360.419 234.227 361.656C231.838 362.851 229 363.448 225.715 363.448ZM264.715 363.448C261.6 363.448 258.784 362.915 256.267 361.848C253.792 360.781 251.83 359.245 250.379 357.24C248.928 355.235 248.182 352.867 248.139 350.136H257.739C257.867 351.971 258.507 353.421 259.659 354.488C260.854 355.555 262.475 356.088 264.523 356.088C266.614 356.088 268.256 355.597 269.451 354.616C270.646 353.592 271.243 352.269 271.243 350.648C271.243 349.325 270.838 348.237 270.027 347.384C269.216 346.531 268.192 345.869 266.955 345.4C265.76 344.888 264.096 344.333 261.963 343.736C259.062 342.883 256.694 342.051 254.859 341.24C253.067 340.387 251.51 339.128 250.187 337.464C248.907 335.757 248.267 333.496 248.267 330.68C248.267 328.035 248.928 325.731 250.251 323.768C251.574 321.805 253.43 320.312 255.819 319.288C258.208 318.221 260.939 317.688 264.011 317.688C268.619 317.688 272.352 318.819 275.211 321.08C278.112 323.299 279.712 326.413 280.011 330.424H270.155C270.07 328.888 269.408 327.629 268.171 326.648C266.976 325.624 265.376 325.112 263.371 325.112C261.622 325.112 260.214 325.56 259.147 326.456C258.123 327.352 257.611 328.653 257.611 330.36C257.611 331.555 257.995 332.557 258.763 333.368C259.574 334.136 260.555 334.776 261.707 335.288C262.902 335.757 264.566 336.312 266.699 336.952C269.6 337.805 271.968 338.659 273.803 339.512C275.638 340.365 277.216 341.645 278.539 343.352C279.862 345.059 280.523 347.299 280.523 350.072C280.523 352.461 279.904 354.68 278.667 356.728C277.43 358.776 275.616 360.419 273.227 361.656C270.838 362.851 268 363.448 264.715 363.448ZM331.125 318.328V325.56H312.501V337.016H326.773V344.12H312.501V363H303.541V318.328H331.125ZM364.871 354.488H347.079L344.135 363H334.727L350.791 318.264H361.223L377.287 363H367.815L364.871 354.488ZM362.439 347.32L355.975 328.632L349.51 347.32H362.439ZM431.995 318.328V363H423.035V333.944L411.067 363H404.283L392.251 333.944V363H383.291V318.328H393.467L407.675 351.544L421.883 318.328H431.995ZM449.814 318.328V363H440.854V318.328H449.814ZM467.626 355.896H482.346V363H458.666V318.328H467.626V355.896ZM523.561 318.328L508.457 347.448V363H499.497V347.448L484.329 318.328H494.441L504.041 338.744L513.577 318.328H523.561ZM564.715 363.448C560.533 363.448 556.693 362.467 553.195 360.504C549.696 358.541 546.923 355.832 544.875 352.376C542.827 348.877 541.803 344.931 541.803 340.536C541.803 336.184 542.827 332.28 544.875 328.824C546.923 325.325 549.696 322.595 553.195 320.632C556.693 318.669 560.533 317.688 564.715 317.688C568.939 317.688 572.779 318.669 576.235 320.632C579.733 322.595 582.485 325.325 584.491 328.824C586.539 332.28 587.563 336.184 587.563 340.536C587.563 344.931 586.539 348.877 584.491 352.376C582.485 355.832 579.733 358.541 576.235 360.504C572.736 362.467 568.896 363.448 564.715 363.448ZM564.715 355.448C567.403 355.448 569.771 354.851 571.819 353.656C573.867 352.419 575.467 350.669 576.619 348.408C577.771 346.147 578.347 343.523 578.347 340.536C578.347 337.549 577.771 334.947 576.619 332.728C575.467 330.467 573.867 328.739 571.819 327.544C569.771 326.349 567.403 325.752 564.715 325.752C562.027 325.752 559.637 326.349 557.547 327.544C555.499 328.739 553.899 330.467 552.747 332.728C551.595 334.947 551.019 337.549 551.019 340.536C551.019 343.523 551.595 346.147 552.747 348.408C553.899 350.669 555.499 352.419 557.547 353.656C559.637 354.851 562.027 355.448 564.715 355.448ZM621.812 318.328V325.56H603.189V337.016H617.461V344.12H603.189V363H594.229V318.328H621.812ZM655.75 318.328V325.56H637.126V337.016H651.398V344.12H637.126V363H628.166V318.328H655.75ZM671.064 318.328V363H662.104V318.328H671.064ZM677.74 340.6C677.74 336.205 678.721 332.28 680.684 328.824C682.689 325.325 685.399 322.616 688.812 320.696C692.268 318.733 696.129 317.752 700.396 317.752C705.388 317.752 709.761 319.032 713.516 321.592C717.271 324.152 719.895 327.693 721.388 332.216H711.084C710.06 330.083 708.609 328.483 706.732 327.416C704.897 326.349 702.764 325.816 700.332 325.816C697.729 325.816 695.404 326.435 693.356 327.672C691.351 328.867 689.772 330.573 688.62 332.792C687.511 335.011 686.956 337.613 686.956 340.6C686.956 343.544 687.511 346.147 688.62 348.408C689.772 350.627 691.351 352.355 693.356 353.592C695.404 354.787 697.729 355.384 700.332 355.384C702.764 355.384 704.897 354.851 706.732 353.784C708.609 352.675 710.06 351.053 711.084 348.92H721.388C719.895 353.485 717.271 357.048 713.516 359.608C709.804 362.125 705.431 363.384 700.396 363.384C696.129 363.384 692.268 362.424 688.812 360.504C685.399 358.541 682.689 355.832 680.684 352.376C678.721 348.92 677.74 344.995 677.74 340.6ZM738.001 325.56V336.76H753.041V343.864H738.001V355.704H754.961V363H729.041V318.264H754.961V325.56H738.001Z" fill="white"/>
</svg>
