<svg width="117" height="23" viewBox="0 0 117 23" fill="none" xmlns="http://www.w3.org/2000/svg">
<path d="M103.01 0.871913C104.508 -0.102746 106.442 -0.193484 108.13 0.270918C108.145 1.27387 108.132 2.2778 108.137 3.28173C107.335 2.92855 106.392 2.6983 105.548 3.04465C104.879 3.31002 104.48 3.99687 104.376 4.68372C104.25 5.55496 104.332 6.43791 104.311 7.31403C106.024 7.31793 107.737 7.315 109.45 7.31598C109.463 6.20376 109.437 5.09055 109.465 3.97833C110.63 3.64662 111.782 3.2749 112.941 2.92562C112.951 4.39103 112.928 5.85741 112.954 7.32379C114.112 7.3072 115.271 7.31988 116.43 7.31598V10.1687C115.267 10.1209 114.103 10.1561 112.94 10.1522C112.945 11.7922 112.941 13.4322 112.942 15.0733C112.961 15.9816 112.893 16.8948 113 17.8001C113.064 18.3338 113.258 18.9251 113.759 19.2012C114.597 19.6704 115.66 19.4656 116.43 18.9504V21.8315C115.426 22.2676 114.304 22.4003 113.218 22.3232C112.188 22.2471 111.121 21.8724 110.448 21.0529C109.672 20.127 109.472 18.8734 109.456 17.7006C109.447 15.1835 109.457 12.6664 109.452 10.1482C107.738 10.1473 106.024 10.1463 104.311 10.1492C104.309 14.0996 104.31 18.0499 104.31 22.0003C103.139 22.0003 101.967 22.0003 100.797 22.0003C100.797 18.0509 100.792 14.1025 100.798 10.1531C99.9838 10.1375 99.1682 10.157 98.3535 10.1404C98.3564 9.20286 98.3603 8.26429 98.3516 7.32573C99.1623 7.3072 99.974 7.315 100.787 7.32086C100.846 6.074 100.656 4.79104 101.029 3.57637C101.344 2.47976 102.044 1.49047 103.01 0.871913Z" fill="#8C8A97"/>
<path d="M27.7909 1.07687C28.4992 0.96955 29.2661 1.21151 29.7354 1.76567C30.2856 2.37251 30.3871 3.33839 29.9793 4.04768C29.5285 4.8477 28.5197 5.21941 27.6407 5.02721C26.7284 4.86331 25.9684 4.01548 26.0094 3.07009C25.9831 2.07494 26.8153 1.18809 27.7909 1.07687Z" fill="#8C8A97"/>
<path d="M0.866361 1.512C2.56982 1.512 4.2723 1.512 5.97576 1.512C7.56605 5.55015 9.16803 9.5844 10.7603 13.6226C11.1671 14.6323 11.5476 15.6538 11.974 16.6558C14.0199 11.6098 16.095 6.57652 18.1253 1.5237C19.7634 1.49736 21.4025 1.51785 23.0416 1.51394C23.0377 8.34241 23.0396 15.1709 23.0406 21.9994C21.8581 21.9964 20.6766 22.0091 19.4951 21.9925C19.5078 16.9534 19.4942 11.9142 19.501 6.87408C19.5029 6.64774 19.4951 6.42139 19.4795 6.19504C19.4103 6.30041 19.3488 6.40968 19.2951 6.52286C17.2648 11.681 15.1955 16.8246 13.1769 21.9876C12.3359 22.0179 11.4939 21.9896 10.652 22.0033C8.55728 16.8451 6.48895 11.6752 4.40499 6.5131C4.35036 6.40578 4.29181 6.30139 4.22839 6.2009C4.18547 8.40876 4.22157 10.6186 4.20986 12.8264C4.21084 15.8841 4.20791 18.9417 4.21084 21.9994C3.09569 22.0023 1.98054 21.9994 0.866361 22.0003C0.865385 15.1709 0.86441 8.34144 0.866361 1.512Z" fill="#8C8A97"/>
<path d="M37.4597 7.30227C39.1553 6.81933 40.9836 6.83885 42.6783 7.31789C43.0276 7.41545 43.3661 7.55106 43.6803 7.73546C43.6608 8.85451 43.6803 9.97454 43.6696 11.0946C42.5369 10.2292 41.0998 9.68087 39.6597 9.86234C38.5163 9.96576 37.4255 10.5589 36.7416 11.4829C35.8625 12.6283 35.6596 14.1493 35.8108 15.5503C35.924 16.6469 36.3777 17.7425 37.2304 18.4694C38.1163 19.2567 39.3582 19.5358 40.5173 19.448C41.6627 19.3162 42.7437 18.8313 43.6696 18.1543C43.6793 19.2148 43.6647 20.2753 43.6774 21.3358C42.2412 22.1905 40.5192 22.411 38.8753 22.33C37.1933 22.2412 35.5162 21.6041 34.2986 20.4216C32.9756 19.1465 32.2576 17.3279 32.1727 15.5064C32.0868 13.6127 32.4722 11.637 33.562 10.0555C34.4752 8.70621 35.9035 7.75107 37.4597 7.30227Z" fill="#8C8A97"/>
<path d="M75.8362 7.07892C77.4606 6.79306 79.1612 7.00283 80.6988 7.58528C80.7007 8.66238 80.6988 9.7385 80.6997 10.8146C79.6256 10.0761 78.3133 9.67899 77.0099 9.72485C76.3533 9.75021 75.6313 10.0283 75.3318 10.6527C75.0937 11.2703 75.2586 12.08 75.8411 12.4498C76.8372 13.1162 78.0255 13.3991 79.0577 13.9962C79.8704 14.4528 80.6588 15.0499 81.0705 15.9104C81.8442 17.5221 81.5163 19.6519 80.1563 20.8539C78.8577 22.0676 76.9875 22.4032 75.2674 22.3388C74.0459 22.2598 72.8186 22.0188 71.6956 21.5193C71.7005 20.3866 71.6888 19.2548 71.7015 18.1231C72.6459 18.809 73.7356 19.2997 74.8888 19.4988C75.6918 19.6295 76.565 19.6353 77.3133 19.2763C78.0294 18.9202 78.1582 17.9026 77.7328 17.2802C77.3348 16.8002 76.7504 16.5357 76.1991 16.2762C75.164 15.8109 74.0762 15.4216 73.1669 14.724C72.5278 14.2254 72.0439 13.523 71.8546 12.7308C71.5736 11.5629 71.6615 10.2468 72.3405 9.2263C73.1161 8.037 74.4635 7.32381 75.8362 7.07892Z" fill="#8C8A97"/>
<path d="M51.536 7.54135C52.5058 6.9589 53.738 6.91011 54.7966 7.26622C54.7917 8.43796 54.7966 9.6097 54.7936 10.7814C54.1009 10.3326 53.2365 10.1404 52.4189 10.2234C51.4218 10.3365 50.6316 11.1024 50.2218 11.9805C49.7769 12.9103 49.693 13.962 49.7213 14.9786C49.7213 17.3192 49.7223 19.6597 49.7213 22.0003C48.5662 22.0003 47.412 22.0003 46.2578 22.0003C46.2549 17.1084 46.2617 12.2156 46.2549 7.32378C47.411 7.30915 48.5671 7.315 49.7233 7.32085C49.7184 8.16088 49.7233 9.0009 49.7203 9.8419C50.096 8.92773 50.655 8.0399 51.536 7.54135Z" fill="#8C8A97"/>
<path d="M26.3281 7.32091C27.493 7.31603 28.6589 7.30432 29.8238 7.32676C29.8102 12.2176 29.8229 17.1095 29.818 22.0003C28.655 22.0003 27.4921 22.0003 26.3301 22.0003C26.3272 17.1075 26.3311 12.2147 26.3281 7.32091Z" fill="#8C8A97"/>
<path fill-rule="evenodd" clip-rule="evenodd" d="M66.2915 7.64281C64.7265 6.93059 62.9479 6.83499 61.262 7.04963C59.4913 7.27305 57.7673 8.10624 56.6434 9.51798C55.617 10.7785 55.1175 12.3981 55.0219 14.0049C54.8804 15.8986 55.1965 17.9084 56.3088 19.489C57.2561 20.8529 58.7517 21.7905 60.3674 22.1359C61.7177 22.4198 63.1304 22.4208 64.4807 22.1398C66.0602 21.8149 67.5354 20.9407 68.5139 19.6509C69.4701 18.4363 69.9501 16.9045 70.0584 15.3757C70.1686 13.8098 70.0106 12.1883 69.3598 10.7444C68.75 9.38822 67.6495 8.25551 66.2915 7.64281ZM65.2483 10.8351C64.4892 10.0673 63.3653 9.76877 62.3097 9.83804C61.4697 9.88487 60.6208 10.1688 59.9984 10.7503C59.1398 11.5278 58.7476 12.6869 58.6413 13.8137C58.5242 15.0528 58.6091 16.3592 59.175 17.489C59.615 18.3661 60.4238 19.0549 61.377 19.3056C62.3136 19.5485 63.3331 19.528 64.2404 19.1797C65.0161 18.8773 65.6307 18.2392 65.9664 17.4841C66.4737 16.3641 66.5234 15.1045 66.461 13.8957C66.3742 12.7913 66.06 11.6332 65.2483 10.8351Z" fill="#8C8A97"/>
<path fill-rule="evenodd" clip-rule="evenodd" d="M94.478 7.75309C92.878 6.94527 91.0165 6.82721 89.2633 7.04478C87.8496 7.22625 86.4603 7.76285 85.3812 8.71019C84.0641 9.84485 83.2914 11.5132 83.0641 13.2196C82.8475 14.926 82.9207 16.7231 83.6163 18.3202C84.2836 19.8871 85.6007 21.1593 87.1852 21.7827C88.7491 22.3983 90.4877 22.4676 92.1336 22.2013C93.8165 21.9232 95.4107 21.0383 96.4527 19.6763C97.5659 18.2695 98.045 16.4489 98.042 14.6752C98.0664 13.4879 97.9181 12.2839 97.4957 11.1688C96.9552 9.71119 95.8732 8.45067 94.478 7.75309ZM93.0266 10.6712C92.2636 10.0009 91.2041 9.77165 90.2119 9.84092C89.2401 9.89555 88.2762 10.3141 87.6479 11.0712C86.9591 11.8819 86.6635 12.9522 86.5835 13.9952C86.5006 15.0723 86.5835 16.1874 87.0001 17.1943C87.3464 18.0392 88.004 18.7738 88.8528 19.1329C89.6392 19.4714 90.525 19.5319 91.366 19.406C92.1495 19.2909 92.9085 18.9163 93.4188 18.3016C93.9251 17.6899 94.1925 16.9191 94.3271 16.1464C94.4969 15.1093 94.4988 14.041 94.2978 13.0088C94.1193 12.1288 93.73 11.2546 93.0266 10.6712Z" fill="#8C8A97"/>
</svg>
