<svg width="107" height="30" viewBox="0 0 107 30" fill="none" xmlns="http://www.w3.org/2000/svg">
<path d="M8.99457 1.77665C9.73649 1.77665 12.9766 1.5361 16.9181 4.5067C17.0949 4.64002 17.1297 4.89216 17.0022 5.07184L15.1097 7.72366C14.9735 7.91493 14.7097 7.95261 14.5242 7.8106C14.1765 7.54107 13.5823 7.11504 12.8868 6.75857C11.7681 6.18763 10.2813 5.70364 8.99747 5.70364C7.71358 5.70364 5.653 6.12387 5.653 8.14389C5.653 9.76975 7.09048 10.3813 11.5247 11.4739C14.4112 12.2245 17.7789 13.6098 17.7789 18.0324C17.7789 22.1014 14.3967 24.6663 9.7336 24.6663C6.92239 24.6663 3.06785 23.5997 0.621808 21.1334C0.474002 20.9827 0.468209 20.7422 0.607321 20.5828L2.73456 18.0759C2.88527 17.8991 3.15479 17.8817 3.32578 18.0411C4.13436 18.7975 6.49926 20.7132 9.722 20.7132C13.5621 20.7132 13.4085 18.4004 13.4085 18.0556C13.4085 17.3194 12.8752 16.2877 10.9798 15.7544C9.08441 15.2212 4.33144 14.3314 2.55198 12.2593C1.45937 10.9638 1.30577 9.5263 1.30577 8.44529C1.30577 6.00795 2.88236 1.77665 8.99457 1.77665Z" fill="#8C8A97"/>
<path d="M28.8007 7.07446C25.378 7.07446 23.529 9.59296 23.529 9.59296V7.84827C23.529 7.62221 23.3464 7.43673 23.1175 7.43673H19.6049C19.3788 7.43673 19.1934 7.61932 19.1934 7.84827V28.9381C19.1934 29.1642 19.3759 29.3497 19.6049 29.3497H23.132C23.358 29.3497 23.5435 29.1671 23.5435 28.9381V22.368C23.5435 22.368 25.2592 24.6691 28.9862 24.6691C31.9423 24.6691 36.7069 22.2956 36.7069 15.9428C36.704 9.59006 32.2235 7.07446 28.8007 7.07446ZM27.8878 20.9189C25.4968 20.9189 23.4681 18.841 23.4681 15.8704C23.4681 14.059 24.6042 10.8942 27.8386 10.8942C31.0729 10.8942 32.3075 13.5026 32.3075 15.8704C32.3075 18.2381 31.0033 20.9189 27.8878 20.9189Z" fill="#8C8A97"/>
<path d="M46.8478 7.07446C41.3181 7.07446 37.8867 11.6217 37.8867 15.908C37.8867 20.6059 41.5326 24.7126 46.8826 24.7126C52.2326 24.7126 55.8785 20.4871 55.8785 15.908C55.8814 11.3289 52.3775 7.07446 46.8478 7.07446ZM46.8826 20.9189C44.6249 20.9189 42.1615 19.0293 42.1615 15.8935C42.1615 12.7577 44.3844 10.8971 46.8826 10.8971C48.8012 10.8971 51.5312 12.4853 51.5312 15.8935C51.5312 19.3018 49.1431 20.9189 46.8826 20.9189Z" fill="#8C8A97"/>
<path d="M66.9401 10.7986V7.80481C66.9401 7.57875 66.7575 7.39327 66.5286 7.39327H62.5204V3.33585C62.5204 3.1098 62.3378 2.92432 62.1089 2.92432H58.6543C58.4282 2.92432 58.2428 3.1069 58.2428 3.33585V7.39327H56.5531C56.3271 7.39327 56.1416 7.57585 56.1416 7.80481V10.7986C56.1416 11.0247 56.3242 11.2101 56.5531 11.2101H58.2428C58.2428 11.2101 58.2428 17.7802 58.2428 19.6872C58.2428 21.5942 59.1122 24.6141 62.903 24.6141C64.6477 24.6141 66.1373 24.0026 66.6996 23.7417C66.8445 23.6751 66.9372 23.5302 66.9372 23.3679V20.435C66.9372 20.1712 66.6416 20.0118 66.4242 20.1625C66.0272 20.435 65.3809 20.7248 64.4245 20.7248C62.6132 20.7248 62.5175 19.4931 62.5175 18.6236C62.5175 17.7542 62.5175 11.2101 62.5175 11.2101H66.5257C66.7575 11.2101 66.9401 11.0247 66.9401 10.7986Z" fill="#8C8A97"/>
<path d="M70.8674 5.3384C72.3416 5.3384 73.5366 4.14336 73.5366 2.6692C73.5366 1.19504 72.3416 0 70.8674 0C69.3933 0 68.1982 1.19504 68.1982 2.6692C68.1982 4.14336 69.3933 5.3384 70.8674 5.3384Z" fill="#8C8A97"/>
<path d="M72.5917 24.3243H69.1313C68.9052 24.3243 68.7197 24.1417 68.7197 23.9128V7.80485C68.7197 7.5788 68.9023 7.39331 69.1313 7.39331H72.5917C72.8177 7.39331 73.0032 7.5759 73.0032 7.80485V23.9128C73.0032 24.1388 72.8177 24.3243 72.5917 24.3243Z" fill="#8C8A97"/>
<path d="M76.8202 11.2101H75.1537C74.9277 11.2101 74.7422 11.0276 74.7422 10.7986V7.80481C74.7422 7.57875 74.9248 7.39327 75.1537 7.39327H76.8202C76.8202 7.39327 76.8202 7.031 76.8202 6.30646C76.8202 5.58192 76.9419 1.01733 82.06 1.01733C84.5959 1.01733 85.4219 1.58537 85.4219 1.58537C85.4219 1.58537 85.4219 4.35601 85.4219 4.66321C85.4219 4.97041 85.3118 5.22545 84.9872 5.09793C84.6626 4.97041 83.7004 4.71828 82.9237 4.71828C82.147 4.71828 81.0747 5.17039 81.0747 6.54701C81.0747 7.0368 81.0747 7.39327 81.0747 7.39327H87.3491C87.5201 7.39327 87.6708 7.4976 87.7317 7.657L92.1224 19.012L96.0668 7.69468C96.1248 7.52948 96.2813 7.41936 96.4552 7.41936H100.313C100.495 7.41936 100.623 7.60194 100.556 7.77003C99.6518 10.1117 94.525 23.3766 93.8642 25.0604C93.1397 26.9094 91.908 29.425 88.3751 29.425C86.3261 29.425 85.0045 28.7382 84.4539 28.3788C84.2829 28.2658 84.2191 28.0455 84.3061 27.86L85.5639 25.1618C85.6161 25.0488 85.7552 25.0053 85.8624 25.072C86.2218 25.2923 87.042 25.7212 87.9954 25.7212C89.3982 25.7212 90.0242 24.0634 90.0242 24.0634L84.6452 11.2101H81.1036V23.9446C81.1036 24.1707 80.9211 24.3562 80.6921 24.3562H77.2201C76.9941 24.3562 76.8086 24.1707 76.8086 23.9446L76.8202 11.2101Z" fill="#8C8A97"/>
<path d="M102.666 8.56689H103.95C104.306 8.56689 104.582 8.66833 104.767 8.85092C104.924 9.00742 105.008 9.22767 105.008 9.49141V9.5001C105.008 9.95221 104.764 10.2362 104.408 10.3695L105.092 11.3723H104.37L103.77 10.4739H103.762H103.283V11.3723H102.666V8.56689ZM103.909 9.92903C104.211 9.92903 104.382 9.76963 104.382 9.53198V9.52329C104.382 9.25955 104.196 9.12334 103.898 9.12334H103.283V9.92903H103.909Z" fill="#8C8A97"/>
<path d="M103.785 12.6823C102.324 12.6823 101.136 11.4941 101.136 10.0334C101.136 8.57276 102.324 7.38452 103.785 7.38452C105.245 7.38452 106.434 8.57276 106.434 10.0334C106.434 11.4941 105.242 12.6823 103.785 12.6823ZM103.785 7.67724C102.483 7.67724 101.426 8.73506 101.426 10.0363C101.426 11.3376 102.483 12.3954 103.785 12.3954C105.086 12.3954 106.144 11.3376 106.144 10.0363C106.144 8.73506 105.083 7.67724 103.785 7.67724Z" fill="#8C8A97"/>
</svg>
