<svg width="120" height="24" viewBox="0 0 120 24" fill="none" xmlns="http://www.w3.org/2000/svg">
<path d="M11.4819 0.00278649V3.63118H9.47245C9.47245 3.63118 7.65824 3.37168 7.65824 5.12158V7.9738H11.4819L11.0272 11.9122H7.65824V22.9444H3.25134V11.8617H0.270508V7.9738H3.38223V4.66919C3.38223 4.66919 2.99412 2.85498 4.61313 1.36457C6.23443 -0.125831 8.37243 0.00278649 8.37243 0.00278649H11.4819Z" fill="#8C8A97"/>
<path d="M22.1072 8.03805V10.0153C20.9819 8.53638 19.4111 7.61548 17.6704 7.61548C14.2533 7.61548 11.4814 10.6284 11.4814 15.5383C11.4814 20.416 14.2533 23.4611 17.6704 23.4611C19.4272 23.4611 21.0118 22.5241 22.1393 21.0199L22.1095 22.9421H26.3533V8.03575H22.1072V8.03805ZM21.8706 17.0149C21.8706 18.5191 20.5938 19.9314 19.0161 19.9314C17.4385 19.9314 16.1616 18.5191 16.1616 17.0149V14.1627C16.1616 12.6585 17.4385 11.2462 19.0161 11.2462C20.5938 11.2462 21.8706 12.6585 21.8706 14.1627V17.0149Z" fill="#8C8A97"/>
<path d="M61.0304 23.0407V21.0635C62.1556 22.5424 63.7264 23.4632 65.4671 23.4632C68.8842 23.4632 71.6561 20.4503 71.6561 15.5405C71.6561 10.6628 68.8842 7.61766 65.4671 7.61766C63.7103 7.61766 62.1258 8.55462 60.9982 10.0588L61.0281 0.213867L56.6143 0.709911V22.9718L61.0304 23.0407ZM61.2669 14.0661C61.2669 12.562 62.5437 11.1496 64.1214 11.1496C65.699 11.1496 66.9759 12.562 66.9759 14.0661V16.9183C66.9759 18.4225 65.699 19.8349 64.1214 19.8349C62.5437 19.8349 61.2669 18.4225 61.2669 16.9183V14.0661Z" fill="#8C8A97"/>
<path d="M35.9456 19.8488C35.9456 19.8488 32.5423 20.044 32.5423 15.6371V15.3959C32.5423 10.989 35.9456 11.1842 35.9456 11.1842C38.2467 11.1521 39.0573 11.9627 39.0573 11.9627L40.1275 8.75457C38.2811 7.39277 32.7076 7.16771 30.2113 9.46647C28.0527 11.4575 28.0527 14.684 28.0917 15.5176C28.0527 16.3513 28.0527 19.5778 30.2113 21.5688C32.7053 23.8699 38.2788 23.6425 40.1275 22.2807L39.0573 19.0726C39.0573 19.0703 38.2467 19.8809 35.9456 19.8488Z" fill="#8C8A97"/>
<path d="M54.7729 17.1113C54.7729 17.1113 56.555 7.77853 48.0328 7.72801C39.5106 7.67749 40.7415 16.1721 40.7415 16.1721C40.9367 21.3253 43.3021 22.8157 47.3507 23.3003C51.4017 23.7872 54.4789 22.2301 54.4789 22.2301L53.5397 19.2172C53.5397 19.2172 50.2672 20.2207 47.6745 19.9957C45.0818 19.7683 45.277 17.1113 45.277 17.1113H54.7729ZM45.215 14.0984C45.215 14.0984 44.9877 10.7938 47.9685 10.7938C50.9493 10.7938 50.7219 14.0984 50.7219 14.0984H45.215Z" fill="#8C8A97"/>
<path d="M80.4377 7.81982C74.8895 7.81982 73.0225 11.1658 73.0225 15.6416C73.0225 20.3884 75.4292 23.4633 80.4377 23.4633C84.5323 23.4633 87.853 20.7122 87.853 15.6416C87.8507 11.3219 85.7334 7.81982 80.4377 7.81982ZM83.3267 16.9345C83.3267 18.4387 82.0154 19.851 80.3987 19.851C78.782 19.851 77.4707 18.4387 77.4707 16.9345V14.0823C77.4707 12.5781 78.782 11.1658 80.3987 11.1658C82.0154 11.1658 83.3267 12.5781 83.3267 14.0823V16.9345Z" fill="#8C8A97"/>
<path d="M96.8098 7.81982C91.2615 7.81982 89.3945 11.1658 89.3945 15.6416C89.3945 20.3884 91.8012 23.4633 96.8098 23.4633C100.904 23.4633 104.225 20.7122 104.225 15.6416C104.225 11.3219 102.108 7.81982 96.8098 7.81982ZM99.7011 16.9345C99.7011 18.4387 98.3898 19.851 96.7731 19.851C95.1564 19.851 93.8451 18.4387 93.8451 16.9345V14.0823C93.8451 12.5781 95.1564 11.1658 96.7731 11.1658C98.3898 11.1658 99.7011 12.5781 99.7011 14.0823V16.9345Z" fill="#8C8A97"/>
<path d="M119.771 23.0087L114.923 15.5039L119.555 8.00137H114.818L110.291 14.7185V0.135986L105.841 0.604474V23.0087H110.291V15.3753L115.176 23.0087H119.771Z" fill="#8C8A97"/>
</svg>
