<svg width="76" height="22" viewBox="0 0 76 22" fill="none" xmlns="http://www.w3.org/2000/svg">
<path d="M14.877 21.2565C12.5031 21.2565 10.4009 19.6611 9.76404 17.376L6.30141 5.02985C6.17852 4.58672 5.77009 4.2766 5.30816 4.2766C4.73997 4.2766 4.27733 4.73925 4.27733 5.30744V20.7295H0V5.30744C0 2.38047 2.38119 0 5.30744 0C7.68212 0 9.785 1.59613 10.4211 3.88263L13.8831 16.2267C14.0059 16.6698 14.4144 16.9799 14.8763 16.9799C15.4445 16.9799 15.9071 16.5173 15.9071 15.9491V0.526262H20.1845V15.9483C20.1845 18.8753 17.8033 21.2565 14.877 21.2565Z" fill="#8C8A97"/>
<path d="M49.6827 20.7296H38.1562V16.453H49.6827C50.6991 16.453 51.5253 15.626 51.5253 14.6097C51.5253 13.5933 50.6983 12.7663 49.6827 12.7663H44.347C40.9726 12.7663 38.2271 10.0208 38.2271 6.64633C38.2271 3.27189 40.9726 0.526367 44.347 0.526367H54.7638V4.80369H44.347C43.3307 4.80369 42.5037 5.63067 42.5037 6.64705C42.5037 7.66343 43.3307 8.49041 44.347 8.49041H49.6827C53.0571 8.49041 55.8026 11.2359 55.8026 14.6104C55.8026 17.9848 53.0571 20.7296 49.6827 20.7296Z" fill="#8C8A97"/>
<path d="M69.9658 3.67516C69.2516 1.47686 67.2181 0 64.9056 0C62.5931 0 60.5596 1.47686 59.8454 3.67516L54.3037 20.7302H58.8008L63.913 4.99732C64.0294 4.63877 64.3815 4.27732 64.9056 4.27732C65.4297 4.27732 65.7817 4.63877 65.8981 4.99732L71.0096 20.7302H75.5067L69.9658 3.67516Z" fill="#8C8A97"/>
<path d="M34.8076 3.67516C34.0934 1.47686 32.0599 0 29.7474 0C27.4349 0 25.4014 1.47686 24.6872 3.67516L19.1455 20.7302H23.6426L28.7549 4.99732C28.8712 4.63877 29.2233 4.27732 29.7474 4.27732C30.2715 4.27732 30.6235 4.63877 30.7399 4.99732L35.8522 20.7302H40.3492L34.8076 3.67516Z" fill="#8C8A97"/>
</svg>
