<?xml version="1.0" encoding="UTF-8"?>
<svg id="Layer_1" data-name="Layer 1" xmlns="http://www.w3.org/2000/svg" viewBox="0 0 345.77 95.55">
  <defs>
    <style>
      .cls-1 {
        fill: #fff;
      }
    </style>
  </defs>
  <g>
    <path class="cls-1" d="M68.02.05h6.5v29.5h18.3v5.5h-24.8V.05Z"/>
    <path class="cls-1" d="M121.57,26.95h-17.5l-3.45,8.1h-6.7L109.67.05h6.4l15.8,35h-6.8l-3.5-8.1ZM119.42,21.85l-6.6-15.3-6.55,15.3h13.15Z"/>
    <path class="cls-1" d="M169.12,35.05l-.05-23.2-11.5,19.2h-2.9l-11.5-18.9v22.9h-6.2V.05h5.35l13.9,23.2L169.87.05h5.35l.05,35h-6.15Z"/>
    <path class="cls-1" d="M216.47,25.55c0,6-4.7,9.5-13.7,9.5h-17.4V.05h16.4c8.4,0,12.9,3.55,12.9,9.1,0,3.6-1.8,6.25-4.5,7.7,3.75,1.2,6.3,4.15,6.3,8.7ZM191.87,5.15v9.65h9.2c4.5,0,7.05-1.6,7.05-4.8s-2.55-4.85-7.05-4.85h-9.2ZM209.92,24.9c0-3.5-2.65-5.05-7.55-5.05h-10.5v10.1h10.5c4.9,0,7.55-1.55,7.55-5.05Z"/>
    <path class="cls-1" d="M224.06.05h15.3c11.35,0,19.1,7,19.1,17.5s-7.75,17.5-19.1,17.5h-15.3V.05ZM239.07,29.55c7.8,0,12.85-4.75,12.85-12s-5.05-12-12.85-12h-8.5v24h8.5Z"/>
    <path class="cls-1" d="M288.21,26.95h-17.5l-3.45,8.1h-6.7L276.31.05h6.4l15.8,35h-6.8l-3.5-8.1ZM286.07,21.85l-6.6-15.3-6.55,15.3h13.15Z"/>
    <path class="cls-1" d="M97.32,72.5c0,7.7-5.7,12.45-14.9,12.45h-7.9v10.1h-6.5v-35h14.4c9.2,0,14.9,4.7,14.9,12.45ZM90.77,72.5c0-4.4-2.95-6.95-8.65-6.95h-7.6v13.9h7.6c5.7,0,8.65-2.55,8.65-6.95Z"/>
    <path class="cls-1" d="M125.42,86.95h-17.5l-3.45,8.1h-6.7l15.75-35h6.4l15.8,35h-6.8l-3.5-8.1ZM123.27,81.85l-6.6-15.3-6.55,15.3h13.15Z"/>
    <path class="cls-1" d="M163.72,95.05l-7.15-10.25c-.45.05-.9.05-1.35.05h-7.9v10.2h-6.5v-35h14.4c9.2,0,14.9,4.7,14.9,12.45,0,5.3-2.7,9.2-7.45,11.05l8.05,11.5h-7ZM154.92,65.55h-7.6v13.95h7.6c5.7,0,8.65-2.6,8.65-7s-2.95-6.95-8.65-6.95Z"/>
    <path class="cls-1" d="M184.62,65.55h-11.6v-5.5h29.7v5.5h-11.6v29.5h-6.5v-29.5Z"/>
    <path class="cls-1" d="M239.37,60.05v35h-5.35l-19.3-23.7v23.7h-6.45v-35h5.35l19.3,23.7v-23.7h6.45Z"/>
    <path class="cls-1" d="M275.67,89.6v5.45h-26.25v-35h25.55v5.45h-19.05v9.1h16.9v5.35h-16.9v9.65h19.75Z"/>
    <path class="cls-1" d="M306.47,95.05l-7.15-10.25c-.45.05-.9.05-1.35.05h-7.9v10.2h-6.5v-35h14.4c9.2,0,14.9,4.7,14.9,12.45,0,5.3-2.7,9.2-7.45,11.05l8.05,11.5h-7ZM297.67,65.55h-7.6v13.95h7.6c5.7,0,8.65-2.6,8.65-7s-2.95-6.95-8.65-6.95Z"/>
    <path class="cls-1" d="M317.81,91.35l2.25-5.05c2.8,2.25,7.25,3.85,11.55,3.85,5.45,0,7.75-1.95,7.75-4.55,0-7.55-20.8-2.6-20.8-15.6,0-5.65,4.5-10.45,14.1-10.45,4.2,0,8.6,1.1,11.65,3.1l-2.05,5.05c-3.15-1.85-6.6-2.75-9.65-2.75-5.4,0-7.6,2.1-7.6,4.75,0,7.45,20.75,2.6,20.75,15.45,0,5.6-4.55,10.4-14.15,10.4-5.45,0-10.9-1.7-13.8-4.2Z"/>
  </g>
  <path class="cls-1" d="M32.63,44.69c-1.49,4.13-8.55,20.92-21.16,50.36H0v-2.18L28.34,30.06l-2.97-9.1c-3.16-9.84-6.99-14.77-11.47-14.77-1.23,0-2.48.26-3.76.79l-2.64,5.47h-3.23V1.25C7.32.42,10.57,0,14.04,0c4.09,0,7.4,1.34,9.95,4.02,2.55,2.68,5.05,7.71,7.51,15.1l22.02,66.25c.7,2.11,1.78,3.65,3.23,4.61,1.45.97,2.92,1.67,4.42,2.11v2.97h-12.92l-15.62-50.36Z"/>
</svg>