<svg width="24" height="24" viewBox="0 0 24 24" fill="none" xmlns="http://www.w3.org/2000/svg">
<path d="M7.39915 16.9331L12.7025 11.6297L7.39915 6.32639C7.2726 6.19985 7.17222 6.04962 7.10374 5.88428C7.03525 5.71894 7 5.54173 7 5.36277C7 5.18381 7.03525 5.0066 7.10374 4.84126C7.17222 4.67592 7.2726 4.52569 7.39915 4.39915C7.52569 4.2726 7.67592 4.17222 7.84126 4.10373C8.0066 4.03525 8.18381 4 8.36277 4C8.54173 4 8.71894 4.03525 8.88428 4.10373C9.04962 4.17222 9.19985 4.2726 9.32639 4.39915L15.6002 10.673C16.1333 11.206 16.1333 12.0671 15.6002 12.6002L9.32639 18.874C9.19994 19.0007 9.04974 19.1012 8.88439 19.1698C8.71904 19.2384 8.54178 19.2737 8.36277 19.2737C8.18376 19.2737 8.0065 19.2384 7.84115 19.1698C7.6758 19.1012 7.5256 19.0007 7.39915 18.874C6.87975 18.3409 6.86608 17.4662 7.39915 16.9331Z" fill="black"/>
</svg>
