<svg width="24" height="24" viewBox="0 0 24 24" fill="none" xmlns="http://www.w3.org/2000/svg">
<path d="M16.6009 7.06691L11.2975 12.3703L16.6009 17.6736C16.7274 17.8002 16.8278 17.9504 16.8963 18.1157C16.9647 18.2811 17 18.4583 17 18.6372C17 18.8162 16.9647 18.9934 16.8963 19.1587C16.8278 19.3241 16.7274 19.4743 16.6009 19.6009C16.4743 19.7274 16.3241 19.8278 16.1587 19.8963C15.9934 19.9648 15.8162 20 15.6372 20C15.4583 20 15.2811 19.9648 15.1157 19.8963C14.9504 19.8278 14.8002 19.7274 14.6736 19.6009L8.3998 13.327C7.86673 12.794 7.86673 11.9329 8.3998 11.3998L14.6736 5.126C14.8001 4.99929 14.9503 4.89876 15.1156 4.83017C15.281 4.76158 15.4582 4.72627 15.6372 4.72627C15.8162 4.72627 15.9935 4.76158 16.1589 4.83017C16.3242 4.89876 16.4744 4.99929 16.6009 5.126C17.1203 5.65907 17.1339 6.53384 16.6009 7.06691Z" fill="black"/>
</svg>
