<svg width="24" height="25" viewBox="0 0 24 25" fill="none" xmlns="http://www.w3.org/2000/svg">
<path d="M24 13.0625C24 13.9016 23.7984 14.6797 23.3953 15.3922C22.9922 16.1047 22.4531 16.6625 21.7734 17.0516C21.7922 17.1781 21.8016 17.375 21.8016 17.6422C21.8016 18.9125 21.375 19.9906 20.5312 20.8813C19.6828 21.7766 18.6609 22.2219 17.4656 22.2219C16.9313 22.2219 16.4203 22.1234 15.9375 21.9266C15.5625 22.6953 15.0234 23.3141 14.3156 23.7875C13.6125 24.2656 12.8391 24.5 12 24.5C11.1422 24.5 10.3641 24.2703 9.67031 23.8016C8.97188 23.3375 8.4375 22.7141 8.0625 21.9266C7.57969 22.1234 7.07344 22.2219 6.53437 22.2219C5.33906 22.2219 4.3125 21.7766 3.45469 20.8813C2.59687 19.9906 2.17031 18.9078 2.17031 17.6422C2.17031 17.5016 2.18906 17.3047 2.22187 17.0516C1.54219 16.6578 1.00313 16.1047 0.6 15.3922C0.201563 14.6797 0 13.9016 0 13.0625C0 12.1719 0.225 11.3516 0.670312 10.6109C1.11562 9.87031 1.71563 9.32187 2.46563 8.96562C2.26875 8.43125 2.17031 7.89219 2.17031 7.35781C2.17031 6.09219 2.59687 5.00937 3.45469 4.11875C4.3125 3.22812 5.33906 2.77813 6.53437 2.77813C7.06875 2.77813 7.57969 2.87656 8.0625 3.07344C8.4375 2.30469 8.97656 1.68594 9.68437 1.2125C10.3875 0.739062 11.1609 0.5 12 0.5C12.8391 0.5 13.6125 0.739062 14.3156 1.20781C15.0188 1.68125 15.5625 2.3 15.9375 3.06875C16.4203 2.87188 16.9266 2.77344 17.4656 2.77344C18.6609 2.77344 19.6828 3.21875 20.5312 4.11406C21.3797 5.00938 21.8016 6.0875 21.8016 7.35313C21.8016 7.94375 21.7125 8.47813 21.5344 8.96094C22.2844 9.31719 22.8844 9.86562 23.3297 10.6062C23.775 11.3516 24 12.1719 24 13.0625ZM11.4891 16.6766L16.4438 9.25625C16.5703 9.05938 16.6078 8.84375 16.5656 8.61406C16.5187 8.38437 16.4016 8.20156 16.2047 8.07969C16.0078 7.95313 15.7922 7.91094 15.5625 7.94375C15.3281 7.98125 15.1406 8.09375 15 8.29063L10.6359 14.8531L8.625 12.8469C8.44687 12.6688 8.24063 12.5844 8.01094 12.5938C7.77656 12.6031 7.575 12.6875 7.39687 12.8469C7.2375 13.0063 7.15781 13.2078 7.15781 13.4516C7.15781 13.6906 7.2375 13.8922 7.39687 14.0563L10.1578 16.8172L10.2937 16.925C10.4531 17.0328 10.6172 17.0844 10.7766 17.0844C11.0906 17.0797 11.3297 16.9484 11.4891 16.6766Z" fill="#1DA1F2"/>
</svg>
