<svg width="28" height="23" viewBox="0 0 28 23" fill="none" xmlns="http://www.w3.org/2000/svg">
<g clip-path="url(#clip0_594_3739)">
<path d="M23.3621 10.85V10.9943L26.4115 7.94497C27.3696 6.98685 27.3696 5.4381 26.4115 4.47997L22.9946 1.06747C22.0365 0.109346 20.4877 0.109346 19.5296 1.06747L17.7752 2.82185C17.6571 2.80872 17.5346 2.79997 17.4121 2.79997H12.5121C10.889 2.79997 9.55461 4.02497 9.37961 5.59997H9.36211V10.85C9.36211 11.8168 10.1452 12.6 11.1121 12.6C12.079 12.6 12.8621 11.8168 12.8621 10.85V7.69997V7.6956V6.99997H13.5621H19.5121C19.5121 6.99997 19.5121 6.99997 19.5165 6.99997H19.8621C21.7959 6.99997 23.3621 8.56622 23.3621 10.5V10.85ZM14.2621 8.39997V10.85C14.2621 12.5912 12.8534 14 11.1121 14C9.37086 14 7.96211 12.5912 7.96211 10.85V5.66122C6.39148 5.93247 5.08336 7.07435 4.63711 8.64497L3.91523 11.165L0.712734 14.3675C-0.245391 15.3256 -0.245391 16.8743 0.712734 17.8325L4.12961 21.2493C5.08773 22.2075 6.63649 22.2075 7.59461 21.2493L9.24399 19.6C9.28336 19.6 9.32273 19.6043 9.36211 19.6043H16.3621C17.5215 19.6043 18.4621 18.6637 18.4621 17.5043C18.4621 17.2593 18.4184 17.0231 18.344 16.8043H18.4621C19.6215 16.8043 20.5621 15.8637 20.5621 14.7043C20.5621 14.1443 20.3434 13.6368 19.9846 13.2606C21.109 13.0418 21.9577 12.0531 21.9621 10.8631V10.8456C21.9577 9.4981 20.864 8.40435 19.5121 8.40435H14.2621V8.39997Z" fill="#5F5C6B"/>
</g>
<defs>
<clipPath id="clip0_594_3739">
<rect width="28" height="22.4" fill="white"/>
</clipPath>
</defs>
</svg>
